<svg width="339" height="203" viewBox="0 0 339 203" fill="none" xmlns="http://www.w3.org/2000/svg">
<path d="M157.5 4.33013C162.141 1.65064 167.859 1.65064 172.5 4.33013L212.926 27.6699C217.567 30.3494 220.426 35.3013 220.426 40.6603V87.3397C220.426 92.6987 217.567 97.6506 212.926 100.33L172.5 123.67C167.859 126.349 162.141 126.349 157.5 123.67L117.074 100.33C112.433 97.6506 109.574 92.6987 109.574 87.3397V40.6603C109.574 35.3013 112.433 30.3494 117.074 27.6699L157.5 4.33013Z" fill="url(#paint0_linear_307_29)"/>
<path d="M35.4219 145.297V143.953C35.4219 140.193 36.3281 137.406 38.1406 135.594C39.9531 133.771 42.3125 132.859 45.2188 132.859C48 132.859 50.1875 133.562 51.7812 134.969C53.375 136.365 54.1719 138.281 54.1719 140.719V141.516H49.1719V140.469C49.1719 139.229 48.8438 138.276 48.1875 137.609C47.5417 136.932 46.5573 136.594 45.2344 136.594C43.8594 136.594 42.7656 137.099 41.9531 138.109C41.1406 139.109 40.7344 140.74 40.7344 143V146.266C40.7344 148.422 41.1354 150.031 41.9375 151.094C42.75 152.156 43.8698 152.688 45.2969 152.688C46.5677 152.688 47.5208 152.333 48.1562 151.625C48.7917 150.917 49.1302 149.911 49.1719 148.609V147.766H54.1719V148.703C54.1094 151.005 53.2969 152.865 51.7344 154.281C50.1823 155.688 48.0104 156.391 45.2188 156.391C42.2396 156.391 39.8594 155.469 38.0781 153.625C36.3073 151.781 35.4219 149.005 35.4219 145.297ZM55.875 148.438V147.922C55.875 145.495 56.6406 143.557 58.1719 142.109C59.7135 140.661 61.7344 139.938 64.2344 139.938C66.7448 139.938 68.7656 140.661 70.2969 142.109C71.8385 143.557 72.6094 145.495 72.6094 147.922V148.438C72.6094 150.865 71.8385 152.802 70.2969 154.25C68.7656 155.698 66.7448 156.422 64.2344 156.422C61.7344 156.422 59.7135 155.698 58.1719 154.25C56.6406 152.802 55.875 150.865 55.875 148.438ZM60.8906 147.703V148.641C60.8906 149.964 61.1771 150.995 61.75 151.734C62.3333 152.464 63.1615 152.828 64.2344 152.828C65.3177 152.828 66.1458 152.464 66.7188 151.734C67.3021 150.995 67.5938 149.964 67.5938 148.641V147.703C67.5938 146.391 67.3021 145.375 66.7188 144.656C66.1354 143.927 65.3073 143.562 64.2344 143.562C63.1719 143.562 62.349 143.927 61.7656 144.656C61.1823 145.375 60.8906 146.391 60.8906 147.703ZM74.4688 148.438V147.922C74.4688 145.495 75.2344 143.557 76.7656 142.109C78.3073 140.661 80.3281 139.938 82.8281 139.938C85.3385 139.938 87.3594 140.661 88.8906 142.109C90.4323 143.557 91.2031 145.495 91.2031 147.922V148.438C91.2031 150.865 90.4323 152.802 88.8906 154.25C87.3594 155.698 85.3385 156.422 82.8281 156.422C80.3281 156.422 78.3073 155.698 76.7656 154.25C75.2344 152.802 74.4688 150.865 74.4688 148.438ZM79.4844 147.703V148.641C79.4844 149.964 79.7708 150.995 80.3438 151.734C80.9271 152.464 81.7552 152.828 82.8281 152.828C83.9115 152.828 84.7396 152.464 85.3125 151.734C85.8958 150.995 86.1875 149.964 86.1875 148.641V147.703C86.1875 146.391 85.8958 145.375 85.3125 144.656C84.7292 143.927 83.901 143.562 82.8281 143.562C81.7656 143.562 80.9427 143.927 80.3594 144.656C79.776 145.375 79.4844 146.391 79.4844 147.703ZM93.8594 156V132.547H98.7969V145.859L103.781 140.391H109.297L98.7969 151.453V156H93.8594ZM104.234 156L99 148.672L102.094 145.25L110.031 156H104.234ZM111.422 156V140.406H116.406V156H111.422ZM111.078 135.625C111.078 134.896 111.323 134.286 111.812 133.797C112.302 133.297 113.005 133.047 113.922 133.047C114.828 133.047 115.526 133.297 116.016 133.797C116.505 134.286 116.75 134.896 116.75 135.625C116.75 136.354 116.5 136.974 116 137.484C115.51 137.984 114.807 138.234 113.891 138.234C112.984 138.234 112.286 137.984 111.797 137.484C111.318 136.974 111.078 136.354 111.078 135.625ZM119.094 148.422V147.922C119.094 145.505 119.844 143.573 121.344 142.125C122.844 140.667 124.797 139.938 127.203 139.938C129.599 139.938 131.464 140.63 132.797 142.016C134.141 143.391 134.812 145.281 134.812 147.688V149.266H122.109V146.484H130V146.234C130 145.432 129.76 144.766 129.281 144.234C128.802 143.693 128.099 143.422 127.172 143.422C126.141 143.422 125.354 143.802 124.812 144.562C124.271 145.323 124 146.318 124 147.547V148.578C124 149.922 124.292 150.979 124.875 151.75C125.458 152.51 126.312 152.891 127.438 152.891C128.229 152.891 128.906 152.708 129.469 152.344C130.042 151.969 130.495 151.521 130.828 151L134.609 152.719C134.099 153.833 133.245 154.734 132.047 155.422C130.849 156.099 129.333 156.438 127.5 156.438C124.865 156.438 122.802 155.714 121.312 154.266C119.833 152.807 119.094 150.859 119.094 148.422ZM136.5 148.438V147.922C136.5 145.453 137.24 143.505 138.719 142.078C140.208 140.651 142.188 139.938 144.656 139.938C147.062 139.938 148.901 140.495 150.172 141.609C151.443 142.724 152.12 144.161 152.203 145.922L152.234 146.234H147.438V146.031C147.438 145.281 147.208 144.677 146.75 144.219C146.302 143.75 145.625 143.516 144.719 143.516C143.667 143.516 142.87 143.885 142.328 144.625C141.786 145.365 141.516 146.391 141.516 147.703V148.641C141.516 149.943 141.781 150.974 142.312 151.734C142.844 152.495 143.641 152.875 144.703 152.875C145.672 152.875 146.37 152.635 146.797 152.156C147.224 151.667 147.443 151.068 147.453 150.359V150.172H152.234L152.219 150.422C152.208 152.161 151.547 153.599 150.234 154.734C148.932 155.859 147.078 156.422 144.672 156.422C142.203 156.422 140.224 155.708 138.734 154.281C137.245 152.844 136.5 150.896 136.5 148.438ZM154.469 150.234V140.406H159.422V149.984C159.422 150.984 159.625 151.682 160.031 152.078C160.448 152.464 161.01 152.656 161.719 152.656C162.365 152.656 162.932 152.469 163.422 152.094C163.922 151.708 164.302 151.229 164.562 150.656V140.406H169.5V156H164.734L164.656 154.078H164.609C164.161 154.766 163.526 155.318 162.703 155.734C161.88 156.141 160.922 156.344 159.828 156.344C158.255 156.344 156.969 155.875 155.969 154.938C154.969 153.99 154.469 152.422 154.469 150.234ZM171.312 143.969V140.406H181.656V143.969H171.312ZM173.672 151.25V141.719L173.75 141.375V136.141H178.547V150.641C178.547 151.505 178.682 152.083 178.953 152.375C179.234 152.667 179.641 152.812 180.172 152.812C180.432 152.812 180.682 152.786 180.922 152.734C181.161 152.682 181.396 152.615 181.625 152.531V155.953C181.354 156.068 180.964 156.172 180.453 156.266C179.943 156.359 179.344 156.406 178.656 156.406C177.115 156.406 175.896 155.995 175 155.172C174.115 154.349 173.672 153.042 173.672 151.25ZM182.281 143.969V140.406H192.625V143.969H182.281ZM184.641 151.25V141.719L184.719 141.375V136.141H189.516V150.641C189.516 151.505 189.651 152.083 189.922 152.375C190.203 152.667 190.609 152.812 191.141 152.812C191.401 152.812 191.651 152.786 191.891 152.734C192.13 152.682 192.365 152.615 192.594 152.531V155.953C192.323 156.068 191.932 156.172 191.422 156.266C190.911 156.359 190.312 156.406 189.625 156.406C188.083 156.406 186.865 155.995 185.969 155.172C185.083 154.349 184.641 153.042 184.641 151.25ZM194.094 148.422V147.922C194.094 145.505 194.844 143.573 196.344 142.125C197.844 140.667 199.797 139.938 202.203 139.938C204.599 139.938 206.464 140.63 207.797 142.016C209.141 143.391 209.812 145.281 209.812 147.688V149.266H197.109V146.484H205V146.234C205 145.432 204.76 144.766 204.281 144.234C203.802 143.693 203.099 143.422 202.172 143.422C201.141 143.422 200.354 143.802 199.812 144.562C199.271 145.323 199 146.318 199 147.547V148.578C199 149.922 199.292 150.979 199.875 151.75C200.458 152.51 201.312 152.891 202.438 152.891C203.229 152.891 203.906 152.708 204.469 152.344C205.042 151.969 205.495 151.521 205.828 151L209.609 152.719C209.099 153.833 208.245 154.734 207.047 155.422C205.849 156.099 204.333 156.438 202.5 156.438C199.865 156.438 197.802 155.714 196.312 154.266C194.833 152.807 194.094 150.859 194.094 148.422ZM212.297 156V140.406H217.141L217.203 142.281H217.25C217.615 141.646 218.099 141.115 218.703 140.688C219.318 140.25 220.016 140.031 220.797 140.031C221.047 140.031 221.292 140.057 221.531 140.109C221.781 140.151 221.958 140.193 222.062 140.234V144.203C221.875 144.141 221.661 144.094 221.422 144.062C221.182 144.031 220.922 144.016 220.641 144.016C219.943 144.016 219.292 144.229 218.688 144.656C218.083 145.083 217.625 145.635 217.312 146.312V156H212.297ZM232.094 156V133.25H239.875C242.875 133.25 245.312 134.188 247.188 136.062C249.062 137.938 250 140.562 250 143.938V145.281C250 148.646 249.062 151.276 247.188 153.172C245.312 155.057 242.875 156 239.875 156H232.094ZM237.109 152.328H239.594C241.198 152.328 242.469 151.771 243.406 150.656C244.354 149.531 244.828 147.865 244.828 145.656V143.609C244.828 141.391 244.349 139.734 243.391 138.641C242.443 137.547 241.177 137 239.594 137H237.109V152.328ZM252.219 148.422V147.922C252.219 145.505 252.969 143.573 254.469 142.125C255.969 140.667 257.922 139.938 260.328 139.938C262.724 139.938 264.589 140.63 265.922 142.016C267.266 143.391 267.938 145.281 267.938 147.688V149.266H255.234V146.484H263.125V146.234C263.125 145.432 262.885 144.766 262.406 144.234C261.927 143.693 261.224 143.422 260.297 143.422C259.266 143.422 258.479 143.802 257.938 144.562C257.396 145.323 257.125 146.318 257.125 147.547V148.578C257.125 149.922 257.417 150.979 258 151.75C258.583 152.51 259.438 152.891 260.562 152.891C261.354 152.891 262.031 152.708 262.594 152.344C263.167 151.969 263.62 151.521 263.953 151L267.734 152.719C267.224 153.833 266.37 154.734 265.172 155.422C263.974 156.099 262.458 156.438 260.625 156.438C257.99 156.438 255.927 155.714 254.438 154.266C252.958 152.807 252.219 150.859 252.219 148.422ZM269.625 148.422V147.922C269.625 145.505 270.375 143.573 271.875 142.125C273.375 140.667 275.328 139.938 277.734 139.938C280.13 139.938 281.995 140.63 283.328 142.016C284.672 143.391 285.344 145.281 285.344 147.688V149.266H272.641V146.484H280.531V146.234C280.531 145.432 280.292 144.766 279.812 144.234C279.333 143.693 278.63 143.422 277.703 143.422C276.672 143.422 275.885 143.802 275.344 144.562C274.802 145.323 274.531 146.318 274.531 147.547V148.578C274.531 149.922 274.823 150.979 275.406 151.75C275.99 152.51 276.844 152.891 277.969 152.891C278.76 152.891 279.438 152.708 280 152.344C280.573 151.969 281.026 151.521 281.359 151L285.141 152.719C284.63 153.833 283.776 154.734 282.578 155.422C281.38 156.099 279.865 156.438 278.031 156.438C275.396 156.438 273.333 155.714 271.844 154.266C270.365 152.807 269.625 150.859 269.625 148.422ZM287.828 162.594V140.406H292.547L292.609 142.219H292.672C293.026 141.594 293.615 141.078 294.438 140.672C295.271 140.255 296.208 140.047 297.25 140.047C299.25 140.047 300.859 140.75 302.078 142.156C303.307 143.562 303.922 145.479 303.922 147.906V148.406C303.922 150.812 303.307 152.734 302.078 154.172C300.859 155.599 299.266 156.312 297.297 156.312C296.266 156.312 295.359 156.146 294.578 155.812C293.807 155.469 293.203 155 292.766 154.406V162.594H287.828ZM292.766 150.688C292.984 151.24 293.359 151.724 293.891 152.141C294.422 152.557 295.057 152.766 295.797 152.766C296.849 152.766 297.63 152.396 298.141 151.656C298.651 150.917 298.906 149.911 298.906 148.641V147.703C298.906 146.422 298.651 145.427 298.141 144.719C297.63 144 296.849 143.641 295.797 143.641C295.026 143.641 294.385 143.844 293.875 144.25C293.365 144.656 292.995 145.125 292.766 145.656V150.688ZM35.4219 192V169.25H40.5156V188.047H49.8594V192H35.4219ZM51.2656 184.422V183.922C51.2656 181.505 52.0156 179.573 53.5156 178.125C55.0156 176.667 56.9688 175.938 59.375 175.938C61.7708 175.938 63.6354 176.63 64.9688 178.016C66.3125 179.391 66.9844 181.281 66.9844 183.688V185.266H54.2812V182.484H62.1719V182.234C62.1719 181.432 61.9323 180.766 61.4531 180.234C60.974 179.693 60.2708 179.422 59.3438 179.422C58.3125 179.422 57.526 179.802 56.9844 180.562C56.4427 181.323 56.1719 182.318 56.1719 183.547V184.578C56.1719 185.922 56.4635 186.979 57.0469 187.75C57.6302 188.51 58.4844 188.891 59.6094 188.891C60.401 188.891 61.0781 188.708 61.6406 188.344C62.2135 187.969 62.6667 187.521 63 187L66.7812 188.719C66.2708 189.833 65.4167 190.734 64.2188 191.422C63.0208 192.099 61.5052 192.438 59.6719 192.438C57.0365 192.438 54.974 191.714 53.4844 190.266C52.0052 188.807 51.2656 186.859 51.2656 184.422ZM68.7188 187.453C68.7188 185.776 69.3698 184.495 70.6719 183.609C71.9844 182.714 73.6667 182.26 75.7188 182.25H79.1094V181.328C79.1094 180.63 78.9323 180.078 78.5781 179.672C78.2344 179.255 77.6302 179.047 76.7656 179.047C75.9219 179.047 75.3021 179.219 74.9062 179.562C74.5208 179.906 74.3281 180.354 74.3281 180.906V181.188L69.6406 181.172V180.875C69.6406 179.427 70.3125 178.25 71.6562 177.344C73.0104 176.427 74.8073 175.969 77.0469 175.969C79.2969 175.969 81.026 176.411 82.2344 177.297C83.4427 178.172 84.0469 179.552 84.0469 181.438V188.469C84.0469 189.104 84.1042 189.708 84.2188 190.281C84.3333 190.854 84.4948 191.349 84.7031 191.766V192H79.8438C79.6979 191.75 79.5781 191.443 79.4844 191.078C79.3906 190.703 79.3229 190.328 79.2812 189.953C78.9583 190.547 78.349 191.083 77.4531 191.562C76.5677 192.031 75.4583 192.266 74.125 192.266C72.5312 192.266 71.2292 191.865 70.2188 191.062C69.2188 190.25 68.7188 189.047 68.7188 187.453ZM73.625 187.047C73.625 187.724 73.8177 188.255 74.2031 188.641C74.599 189.026 75.1927 189.219 75.9844 189.219C76.849 189.219 77.5833 188.932 78.1875 188.359C78.8021 187.786 79.1094 187.12 79.1094 186.359V184.984H76.8125C75.7292 184.984 74.9271 185.156 74.4062 185.5C73.8854 185.833 73.625 186.349 73.625 187.047ZM87.5312 192V176.406H92.375L92.4375 178.281H92.4844C92.849 177.646 93.3333 177.115 93.9375 176.688C94.5521 176.25 95.25 176.031 96.0312 176.031C96.2812 176.031 96.526 176.057 96.7656 176.109C97.0156 176.151 97.1927 176.193 97.2969 176.234V180.203C97.1094 180.141 96.8958 180.094 96.6562 180.062C96.4167 180.031 96.1562 180.016 95.875 180.016C95.1771 180.016 94.526 180.229 93.9219 180.656C93.3177 181.083 92.8594 181.635 92.5469 182.312V192H87.5312ZM99.375 192V176.406H104.156L104.219 178.312H104.281C104.677 177.635 105.286 177.089 106.109 176.672C106.943 176.255 107.901 176.047 108.984 176.047C110.589 176.047 111.891 176.5 112.891 177.406C113.901 178.302 114.406 179.844 114.406 182.031V192H109.469V182.344C109.469 181.406 109.266 180.745 108.859 180.359C108.464 179.974 107.901 179.781 107.172 179.781C106.557 179.781 105.995 179.958 105.484 180.312C104.974 180.667 104.583 181.156 104.312 181.781V192H99.375ZM117.781 192V176.406H122.766V192H117.781ZM117.438 171.625C117.438 170.896 117.682 170.286 118.172 169.797C118.661 169.297 119.365 169.047 120.281 169.047C121.188 169.047 121.885 169.297 122.375 169.797C122.865 170.286 123.109 170.896 123.109 171.625C123.109 172.354 122.859 172.974 122.359 173.484C121.87 173.984 121.167 174.234 120.25 174.234C119.344 174.234 118.646 173.984 118.156 173.484C117.677 172.974 117.438 172.354 117.438 171.625ZM126.25 192V176.406H131.031L131.094 178.312H131.156C131.552 177.635 132.161 177.089 132.984 176.672C133.818 176.255 134.776 176.047 135.859 176.047C137.464 176.047 138.766 176.5 139.766 177.406C140.776 178.302 141.281 179.844 141.281 182.031V192H136.344V182.344C136.344 181.406 136.141 180.745 135.734 180.359C135.339 179.974 134.776 179.781 134.047 179.781C133.432 179.781 132.87 179.958 132.359 180.312C131.849 180.667 131.458 181.156 131.188 181.781V192H126.25ZM144.656 196.891L146.188 193.734C146.594 194.099 147.255 194.458 148.172 194.812C149.099 195.167 150.068 195.344 151.078 195.344C152.151 195.344 153.062 195.021 153.812 194.375C154.573 193.729 154.953 192.688 154.953 191.25V190.172C154.526 190.818 153.938 191.328 153.188 191.703C152.448 192.068 151.516 192.25 150.391 192.25C148.411 192.25 146.818 191.536 145.609 190.109C144.401 188.672 143.797 186.781 143.797 184.438V183.938C143.797 181.604 144.385 179.714 145.562 178.266C146.75 176.818 148.354 176.094 150.375 176.094C151.385 176.094 152.302 176.302 153.125 176.719C153.958 177.125 154.568 177.651 154.953 178.297H155.016L155.078 176.406H159.844V190.766C159.844 193.38 159.089 195.385 157.578 196.781C156.068 198.177 154.099 198.875 151.672 198.875C150.214 198.875 148.88 198.682 147.672 198.297C146.464 197.911 145.458 197.443 144.656 196.891ZM148.766 184.547C148.766 185.797 149.026 186.807 149.547 187.578C150.078 188.349 150.896 188.734 152 188.734C152.719 188.734 153.333 188.526 153.844 188.109C154.354 187.693 154.714 187.214 154.922 186.672V181.75C154.693 181.156 154.323 180.656 153.812 180.25C153.302 179.844 152.682 179.641 151.953 179.641C150.88 179.641 150.078 180.031 149.547 180.812C149.026 181.594 148.766 182.604 148.766 183.844V184.547ZM171.234 192V169.25H179.906C182.375 169.25 184.307 169.891 185.703 171.172C187.099 172.453 187.797 174.203 187.797 176.422C187.797 178.672 187.078 180.464 185.641 181.797C184.214 183.13 182.292 183.797 179.875 183.797H176.328V192H171.234ZM176.328 180.234H179.281C180.531 180.234 181.406 179.901 181.906 179.234C182.417 178.568 182.677 177.682 182.688 176.578C182.688 175.484 182.432 174.609 181.922 173.953C181.411 173.297 180.531 172.969 179.281 172.969H176.328V180.234ZM183.188 192L178.328 181.75L183.297 181.031L188.812 192H183.188ZM189.797 184.422V183.922C189.797 181.505 190.547 179.573 192.047 178.125C193.547 176.667 195.5 175.938 197.906 175.938C200.302 175.938 202.167 176.63 203.5 178.016C204.844 179.391 205.516 181.281 205.516 183.688V185.266H192.812V182.484H200.703V182.234C200.703 181.432 200.464 180.766 199.984 180.234C199.505 179.693 198.802 179.422 197.875 179.422C196.844 179.422 196.057 179.802 195.516 180.562C194.974 181.323 194.703 182.318 194.703 183.547V184.578C194.703 185.922 194.995 186.979 195.578 187.75C196.161 188.51 197.016 188.891 198.141 188.891C198.932 188.891 199.609 188.708 200.172 188.344C200.745 187.969 201.198 187.521 201.531 187L205.312 188.719C204.802 189.833 203.948 190.734 202.75 191.422C201.552 192.099 200.036 192.438 198.203 192.438C195.568 192.438 193.505 191.714 192.016 190.266C190.536 188.807 189.797 186.859 189.797 184.422ZM207.219 187.016L211.828 187.062V187.328C211.828 188.057 212.073 188.583 212.562 188.906C213.052 189.219 213.708 189.375 214.531 189.375C215.354 189.375 215.969 189.234 216.375 188.953C216.781 188.661 216.984 188.26 216.984 187.75C216.984 187.24 216.745 186.859 216.266 186.609C215.797 186.349 214.771 186.062 213.188 185.75C211.26 185.365 209.854 184.776 208.969 183.984C208.094 183.182 207.656 182.12 207.656 180.797C207.656 179.266 208.276 178.073 209.516 177.219C210.755 176.365 212.453 175.938 214.609 175.938C216.734 175.938 218.422 176.38 219.672 177.266C220.922 178.151 221.547 179.385 221.547 180.969V181.203H216.953V180.922C216.953 180.307 216.75 179.844 216.344 179.531C215.938 179.219 215.333 179.062 214.531 179.062C213.781 179.062 213.234 179.188 212.891 179.438C212.547 179.688 212.375 180.031 212.375 180.469C212.375 180.896 212.615 181.24 213.094 181.5C213.573 181.75 214.609 182.036 216.203 182.359C218.182 182.724 219.62 183.292 220.516 184.062C221.422 184.823 221.875 185.88 221.875 187.234C221.875 188.901 221.255 190.182 220.016 191.078C218.786 191.974 216.984 192.422 214.609 192.422C212.266 192.422 210.453 191.974 209.172 191.078C207.901 190.182 207.255 188.906 207.234 187.25L207.219 187.016ZM223.797 184.422V183.922C223.797 181.505 224.547 179.573 226.047 178.125C227.547 176.667 229.5 175.938 231.906 175.938C234.302 175.938 236.167 176.63 237.5 178.016C238.844 179.391 239.516 181.281 239.516 183.688V185.266H226.812V182.484H234.703V182.234C234.703 181.432 234.464 180.766 233.984 180.234C233.505 179.693 232.802 179.422 231.875 179.422C230.844 179.422 230.057 179.802 229.516 180.562C228.974 181.323 228.703 182.318 228.703 183.547V184.578C228.703 185.922 228.995 186.979 229.578 187.75C230.161 188.51 231.016 188.891 232.141 188.891C232.932 188.891 233.609 188.708 234.172 188.344C234.745 187.969 235.198 187.521 235.531 187L239.312 188.719C238.802 189.833 237.948 190.734 236.75 191.422C235.552 192.099 234.036 192.438 232.203 192.438C229.568 192.438 227.505 191.714 226.016 190.266C224.536 188.807 223.797 186.859 223.797 184.422ZM241.25 187.453C241.25 185.776 241.901 184.495 243.203 183.609C244.516 182.714 246.198 182.26 248.25 182.25H251.641V181.328C251.641 180.63 251.464 180.078 251.109 179.672C250.766 179.255 250.161 179.047 249.297 179.047C248.453 179.047 247.833 179.219 247.438 179.562C247.052 179.906 246.859 180.354 246.859 180.906V181.188L242.172 181.172V180.875C242.172 179.427 242.844 178.25 244.188 177.344C245.542 176.427 247.339 175.969 249.578 175.969C251.828 175.969 253.557 176.411 254.766 177.297C255.974 178.172 256.578 179.552 256.578 181.438V188.469C256.578 189.104 256.635 189.708 256.75 190.281C256.865 190.854 257.026 191.349 257.234 191.766V192H252.375C252.229 191.75 252.109 191.443 252.016 191.078C251.922 190.703 251.854 190.328 251.812 189.953C251.49 190.547 250.88 191.083 249.984 191.562C249.099 192.031 247.99 192.266 246.656 192.266C245.062 192.266 243.76 191.865 242.75 191.062C241.75 190.25 241.25 189.047 241.25 187.453ZM246.156 187.047C246.156 187.724 246.349 188.255 246.734 188.641C247.13 189.026 247.724 189.219 248.516 189.219C249.38 189.219 250.115 188.932 250.719 188.359C251.333 187.786 251.641 187.12 251.641 186.359V184.984H249.344C248.26 184.984 247.458 185.156 246.938 185.5C246.417 185.833 246.156 186.349 246.156 187.047ZM260.062 192V176.406H264.906L264.969 178.281H265.016C265.38 177.646 265.865 177.115 266.469 176.688C267.083 176.25 267.781 176.031 268.562 176.031C268.812 176.031 269.057 176.057 269.297 176.109C269.547 176.151 269.724 176.193 269.828 176.234V180.203C269.641 180.141 269.427 180.094 269.188 180.062C268.948 180.031 268.688 180.016 268.406 180.016C267.708 180.016 267.057 180.229 266.453 180.656C265.849 181.083 265.391 181.635 265.078 182.312V192H260.062ZM270.828 184.438V183.922C270.828 181.453 271.568 179.505 273.047 178.078C274.536 176.651 276.516 175.938 278.984 175.938C281.391 175.938 283.229 176.495 284.5 177.609C285.771 178.724 286.448 180.161 286.531 181.922L286.562 182.234H281.766V182.031C281.766 181.281 281.536 180.677 281.078 180.219C280.63 179.75 279.953 179.516 279.047 179.516C277.995 179.516 277.198 179.885 276.656 180.625C276.115 181.365 275.844 182.391 275.844 183.703V184.641C275.844 185.943 276.109 186.974 276.641 187.734C277.172 188.495 277.969 188.875 279.031 188.875C280 188.875 280.698 188.635 281.125 188.156C281.552 187.667 281.771 187.068 281.781 186.359V186.172H286.562L286.547 186.422C286.536 188.161 285.875 189.599 284.562 190.734C283.26 191.859 281.406 192.422 279 192.422C276.531 192.422 274.552 191.708 273.062 190.281C271.573 188.844 270.828 186.896 270.828 184.438ZM288.938 192V168.547H293.875V178.469C294.302 177.76 294.922 177.182 295.734 176.734C296.547 176.276 297.552 176.047 298.75 176.047C300.26 176.047 301.5 176.505 302.469 177.422C303.438 178.339 303.922 179.828 303.922 181.891V192H298.984V182.453C298.984 181.484 298.771 180.797 298.344 180.391C297.927 179.984 297.354 179.781 296.625 179.781C295.979 179.781 295.422 179.969 294.953 180.344C294.484 180.708 294.125 181.214 293.875 181.859V192H288.938Z" fill="white"/>
<path d="M176.445 61.1631C175.986 60.8495 174.778 60.7155 173.9 60.9553C173.852 60.0687 173.401 59.3216 172.576 58.6697L172.271 58.4619L172.067 58.7735C171.667 59.3892 171.498 60.2094 171.558 60.955C171.605 61.4144 171.763 61.9308 172.067 62.3055C170.924 62.9775 169.871 62.8249 165.205 62.8249H158.002C157.981 63.8927 158.15 65.9468 159.439 67.6189C159.581 67.8036 159.737 67.9823 159.906 68.1545C160.954 69.218 162.537 69.9977 164.905 70C168.516 70.0033 171.61 68.0248 173.492 63.2408C174.112 63.2511 175.746 63.3534 176.546 61.7863C176.566 61.7599 176.75 61.3707 176.75 61.3707L176.445 61.1631ZM162.703 60.1865H160.677V62.2397H162.703V60.1865ZM165.32 60.1865H163.294V62.2397H165.32V60.1865ZM167.937 60.1865H165.911V62.2397H167.937V60.1865ZM170.553 60.1865H168.528V62.2397H170.553V60.1865ZM160.086 60.1865H158.06V62.2397H160.086V60.1865ZM162.703 57.5934H160.677V59.6465H162.703V57.5934ZM165.32 57.5934H163.294V59.6465H165.32V57.5934ZM167.937 57.5934H165.911V59.6465H167.937V57.5934ZM167.937 55H165.911V57.0531H167.937V55Z" fill="white"/>
<path d="M190.572 59.3869L189.458 60.5008C191.287 62.3298 191.287 65.2727 189.458 67.0743C187.629 68.9033 184.686 68.9033 182.884 67.0743C181.055 65.2452 181.055 62.3023 182.884 60.5008L185.786 57.5991L186.199 57.1866V55L181.826 59.3731C179.391 61.8072 179.391 65.7403 181.826 68.1744C184.26 70.6085 188.193 70.6085 190.586 68.1744C193.006 65.7403 193.006 61.8347 190.572 59.3869Z" fill="white"/>
<path d="M188.385 59.1256C188.833 59.1256 189.197 58.7624 189.197 58.3142C189.197 57.8661 188.833 57.5029 188.385 57.5029C187.937 57.5029 187.574 57.8661 187.574 58.3142C187.574 58.7624 187.937 59.1256 188.385 59.1256Z" fill="white"/>
<path d="M158.273 74.0758C152.708 83.6153 140.464 86.8375 130.924 81.2728C121.385 75.7081 118.163 63.4637 123.727 53.9242C129.292 44.3847 141.536 41.1625 151.076 46.7272C153.104 47.9104 154.908 49.4416 156.405 51.2507L141 64L158.273 74.0758Z" fill="white"/>
<path d="M143.692 57.5611C143.093 58.5879 141.775 58.9347 140.748 58.3357C139.722 57.7367 139.375 56.4188 139.974 55.3919C140.573 54.3651 141.891 54.0183 142.917 54.6173C143.918 55.201 144.277 56.472 143.73 57.4931L141.833 56.4765L143.692 57.5611Z" fill="#2283E8"/>
<path d="M145.13 80.416C144.003 79.1711 144.456 75.9668 145.758 75.9668C146.378 75.9668 148.028 79.8271 147.735 80.5917C147.4 81.4648 145.993 81.3699 145.13 80.416ZM128.395 65.7298C128.266 65.3923 128.592 64.1128 129.119 62.8865C129.962 60.9276 130.235 60.6568 131.366 60.6568C133.087 60.6568 134.345 61.3808 134.345 62.371C134.345 63.5269 131.078 66.3434 129.737 66.3434C129.129 66.3434 128.525 66.0672 128.395 65.7298ZM132.705 50.3062C131.827 49.9522 132.071 49.0035 133.236 48.2404C134.578 47.3608 135.35 47.3528 136.991 48.2013C138.402 48.9308 138.678 49.9129 137.59 50.3304C136.779 50.6417 133.496 50.6254 132.705 50.3062Z" fill="#2282E7"/>
<path d="M203.427 55.0008C202.025 55.0195 200.656 55.4296 199.474 56.1848C198.292 56.94 197.345 58.0104 196.739 59.2751C196.133 60.5399 195.892 61.9488 196.044 63.343C196.196 64.7372 196.734 66.0613 197.598 67.1659L199.891 65.4821C199.334 64.7899 198.983 63.955 198.878 63.0727C198.773 62.1904 198.919 61.2964 199.298 60.493C199.677 59.6896 200.275 59.0091 201.023 58.5295C201.771 58.0499 202.639 57.7905 203.527 57.781V59.573L207.845 56.3602C206.552 55.4538 205.006 54.9781 203.427 55.0008ZM209.404 57.8341L207.111 59.5186C207.669 60.2107 208.02 61.0457 208.125 61.9281C208.23 62.8105 208.084 63.7046 207.705 64.5082C207.325 65.3117 206.728 65.9922 205.98 66.4719C205.231 66.9515 204.364 67.2109 203.475 67.2203V65.4283L199.157 68.641C200.635 69.6747 202.436 70.1434 204.23 69.9617C206.025 69.7801 207.694 68.9602 208.936 67.6513C210.177 66.3424 210.907 64.6314 210.993 62.8297C211.079 61.028 210.515 59.2552 209.404 57.8341Z" fill="white"/>
<defs>
<linearGradient id="paint0_linear_307_29" x1="101" y1="0" x2="229" y2="128" gradientUnits="userSpaceOnUse">
<stop stop-color="#394BD7"/>
<stop offset="1" stop-color="#01D0FE"/>
</linearGradient>
</defs>
</svg>
